<?xml version="1.0" encoding="iso-8859-1"?>
<!-- Generator: Adobe Illustrator 19.0.0, SVG Export Plug-In . SVG Version: 6.00 Build 0)  -->
<svg version="1.1" id="Layer_1" xmlns="http://www.w3.org/2000/svg" xmlns:xlink="http://www.w3.org/1999/xlink" x="0px" y="0px"
	 viewBox="0 0 512 512" style="enable-background:new 0 0 512 512;" xml:space="preserve">
	 
<g>
	<g>
	    <linearGradient y2="0%" x2="100%" y1="100%" x1="100%" id="lg">
			<stop stop-color="#00FF00" offset="50%" id="F1gst1"/>
			<stop stop-color="#FFFFFF" offset="50%" id="F1gst2"/>
		</linearGradient>
		<rect x="0" y="278.261" width="434" height="234" fill="url(#lg)"/>
	</g>
</g>
<g>
	<g>
		<rect x="66.783" y="367.304" width="100.174" height="55.652"/>
	</g>
</g>
<g>
	<g>
		<rect x="333.913" y="367.304" width="100.174" height="55.652"/>
	</g>
</g>
<g>
	<g>
		<rect y="367.304" width="33.391" height="55.652"/>
	</g>
</g>
<g>
	<g>
		<path d="M417.391,278.261h-16.696v55.652h33.391v-38.956C434.087,285.736,426.612,278.261,417.391,278.261z"/>
	</g>
</g>
<g>
	<g>
		<rect x="267.13" y="278.261" width="100.174" height="55.652"/>
	</g>
</g>
<g>
	<g>
		<rect x="200.348" y="367.304" width="100.174" height="55.652"/>
	</g>
</g>
<g>
	<g>
		<rect x="133.565" y="278.261" width="100.174" height="55.652"/>
	</g>
</g>
<g>
	<g>
		<path d="M400.696,456.348V512h16.696c9.22,0,16.696-7.475,16.696-16.696v-38.956H400.696z"/>
	</g>
</g>
<g>
	<g>
		<rect x="133.565" y="456.348" width="100.174" height="55.652"/>
	</g>
</g>
<g>
	<g>
		<rect x="267.13" y="456.348" width="100.174" height="55.652"/>
	</g>
</g>
<g>
	<g>
		<path d="M0,456.348v38.956C0,504.525,7.475,512,16.696,512h83.478v-55.652H0z"/>
	</g>
</g>
<g>
	<g>
		<path d="M16.696,278.261C7.475,278.261,0,285.736,0,294.957v38.956h100.174v-55.652H16.696z"/>
	</g>
</g>
<g>
	<g>
		<path d="M495.304,100.174h-27.826V50.087c0-9.217-7.479-16.696-16.696-16.696h-50.087V16.696C400.696,7.479,393.217,0,384,0
			s-16.696,7.479-16.696,16.696v16.696h-36.253C324.175,13.94,305.633,0,283.826,0H150.261c-21.807,0-40.349,13.94-47.225,33.391
			H66.783V16.696C66.783,7.479,59.304,0,50.087,0S33.391,7.479,33.391,16.696V244.87h33.391V66.783h36.253
			c6.876,19.452,25.419,33.391,47.225,33.391h50.087v33.391h-38.957c-5.239,0-10.174,2.456-13.326,6.642
			c-3.163,4.185-4.163,9.609-2.728,14.641l22.261,77.913c2.055,7.164,8.598,12.109,16.055,12.109h66.783
			c7.456,0,14-4.945,16.055-12.109l22.261-77.913c1.435-5.032,0.435-10.457-2.728-14.641c-3.152-4.185-8.087-6.642-13.326-6.642
			h-38.957v-33.391h50.087c21.807,0,40.349-13.94,47.225-33.391h36.253V244.87h33.391V66.783h33.391v50.087
			c0,9.217,7.479,16.696,16.696,16.696h44.522c9.217,0,16.696-7.479,16.696-16.696S504.521,100.174,495.304,100.174z"/>
	</g>
</g>
<g>
</g>
<g>
</g>
<g>
</g>
<g>
</g>
<g>
</g>
<g>
</g>
<g>
</g>
<g>
</g>
<g>
</g>
<g>
</g>
<g>
</g>
<g>
</g>
<g>
</g>
<g>
</g>
<g>
</g>
</svg>
